<mxfile host="Electron" agent="Mozilla/5.0 (Macintosh; Intel Mac OS X 10_15_7) AppleWebKit/537.36 (KHTML, like Gecko) draw.io/24.7.8 Chrome/128.0.6613.36 Electron/32.0.1 Safari/537.36" version="24.7.8">
  <diagram name="Page-1" id="w3XVYJXijQlhHTOMaWid">
    <mxGraphModel dx="877" dy="511" grid="1" gridSize="10" guides="1" tooltips="1" connect="1" arrows="1" fold="1" page="1" pageScale="1" pageWidth="1169" pageHeight="827" math="0" shadow="0">
      <root>
        <mxCell id="0" />
        <mxCell id="1" parent="0" />
        <mxCell id="8DD1BKv9RdwahtxrYvbB-3" style="edgeStyle=orthogonalEdgeStyle;rounded=0;orthogonalLoop=1;jettySize=auto;html=1;entryX=0.5;entryY=0;entryDx=0;entryDy=0;" parent="1" source="8DD1BKv9RdwahtxrYvbB-1" target="8DD1BKv9RdwahtxrYvbB-2" edge="1">
          <mxGeometry relative="1" as="geometry" />
        </mxCell>
        <mxCell id="8DD1BKv9RdwahtxrYvbB-1" value="BSplineX" style="rounded=1;whiteSpace=wrap;html=1;" parent="1" vertex="1">
          <mxGeometry x="524" y="30" width="120" height="60" as="geometry" />
        </mxCell>
        <mxCell id="8DD1BKv9RdwahtxrYvbB-7" style="edgeStyle=orthogonalEdgeStyle;rounded=0;orthogonalLoop=1;jettySize=auto;html=1;" parent="1" source="8DD1BKv9RdwahtxrYvbB-2" target="8DD1BKv9RdwahtxrYvbB-5" edge="1">
          <mxGeometry relative="1" as="geometry">
            <Array as="points">
              <mxPoint x="408" y="200" />
              <mxPoint x="408" y="200" />
            </Array>
          </mxGeometry>
        </mxCell>
        <mxCell id="XMHfkYjzhpahlJGWncad-2" style="edgeStyle=orthogonalEdgeStyle;rounded=0;orthogonalLoop=1;jettySize=auto;html=1;entryX=0.5;entryY=0;entryDx=0;entryDy=0;" parent="1" source="8DD1BKv9RdwahtxrYvbB-2" target="XMHfkYjzhpahlJGWncad-1" edge="1">
          <mxGeometry relative="1" as="geometry">
            <Array as="points">
              <mxPoint x="408" y="210" />
              <mxPoint x="640" y="210" />
            </Array>
          </mxGeometry>
        </mxCell>
        <mxCell id="XMHfkYjzhpahlJGWncad-10" style="edgeStyle=orthogonalEdgeStyle;rounded=0;orthogonalLoop=1;jettySize=auto;html=1;" parent="1" source="8DD1BKv9RdwahtxrYvbB-2" target="8DD1BKv9RdwahtxrYvbB-4" edge="1">
          <mxGeometry relative="1" as="geometry">
            <Array as="points">
              <mxPoint x="408" y="210" />
              <mxPoint x="175" y="210" />
            </Array>
          </mxGeometry>
        </mxCell>
        <mxCell id="8DD1BKv9RdwahtxrYvbB-2" value="BSpline&amp;lt;type, bc, ext, curve_type&amp;gt;" style="rounded=1;whiteSpace=wrap;html=1;" parent="1" vertex="1">
          <mxGeometry x="299" y="130" width="218" height="60" as="geometry" />
        </mxCell>
        <mxCell id="8DD1BKv9RdwahtxrYvbB-4" value="knots&amp;lt;type, bc, ext, curve_type&amp;gt;" style="rounded=1;whiteSpace=wrap;html=1;" parent="1" vertex="1">
          <mxGeometry x="80" y="250" width="190" height="60" as="geometry" />
        </mxCell>
        <mxCell id="8DD1BKv9RdwahtxrYvbB-5" value="control_points&amp;lt;type, bc&amp;gt;" style="rounded=1;whiteSpace=wrap;html=1;" parent="1" vertex="1">
          <mxGeometry x="340" y="250" width="136" height="60" as="geometry" />
        </mxCell>
        <mxCell id="XMHfkYjzhpahlJGWncad-1" value="deboor&amp;lt;type, curve_type&amp;gt;" style="rounded=1;whiteSpace=wrap;html=1;" parent="1" vertex="1">
          <mxGeometry x="560" y="250" width="160" height="60" as="geometry" />
        </mxCell>
        <mxCell id="XMHfkYjzhpahlJGWncad-9" value="template arguments" style="swimlane;whiteSpace=wrap;html=1;rounded=1;" parent="1" vertex="1">
          <mxGeometry x="174" y="380" width="470" height="230" as="geometry" />
        </mxCell>
        <mxCell id="8DD1BKv9RdwahtxrYvbB-12" value="bc" style="swimlane;fontStyle=0;childLayout=stackLayout;horizontal=1;startSize=30;horizontalStack=0;resizeParent=1;resizeParentMax=0;resizeLast=0;collapsible=1;marginBottom=0;whiteSpace=wrap;html=1;rounded=1;" parent="XMHfkYjzhpahlJGWncad-9" vertex="1">
          <mxGeometry x="142" y="50" width="70" height="120" as="geometry" />
        </mxCell>
        <mxCell id="8DD1BKv9RdwahtxrYvbB-13" value="open" style="text;strokeColor=none;fillColor=none;align=left;verticalAlign=middle;spacingLeft=4;spacingRight=4;overflow=hidden;points=[[0,0.5],[1,0.5]];portConstraint=eastwest;rotatable=0;whiteSpace=wrap;html=1;" parent="8DD1BKv9RdwahtxrYvbB-12" vertex="1">
          <mxGeometry y="30" width="70" height="30" as="geometry" />
        </mxCell>
        <mxCell id="8DD1BKv9RdwahtxrYvbB-14" value="periodic" style="text;strokeColor=none;fillColor=none;align=left;verticalAlign=middle;spacingLeft=4;spacingRight=4;overflow=hidden;points=[[0,0.5],[1,0.5]];portConstraint=eastwest;rotatable=0;whiteSpace=wrap;html=1;" parent="8DD1BKv9RdwahtxrYvbB-12" vertex="1">
          <mxGeometry y="60" width="70" height="30" as="geometry" />
        </mxCell>
        <mxCell id="8DD1BKv9RdwahtxrYvbB-15" value="clamped" style="text;strokeColor=none;fillColor=none;align=left;verticalAlign=middle;spacingLeft=4;spacingRight=4;overflow=hidden;points=[[0,0.5],[1,0.5]];portConstraint=eastwest;rotatable=0;whiteSpace=wrap;html=1;" parent="8DD1BKv9RdwahtxrYvbB-12" vertex="1">
          <mxGeometry y="90" width="70" height="30" as="geometry" />
        </mxCell>
        <mxCell id="8DD1BKv9RdwahtxrYvbB-18" value="type" style="swimlane;fontStyle=0;childLayout=stackLayout;horizontal=1;startSize=30;horizontalStack=0;resizeParent=1;resizeParentMax=0;resizeLast=0;collapsible=1;marginBottom=0;whiteSpace=wrap;html=1;rounded=1;" parent="XMHfkYjzhpahlJGWncad-9" vertex="1">
          <mxGeometry x="37" y="50" width="70" height="90" as="geometry" />
        </mxCell>
        <mxCell id="8DD1BKv9RdwahtxrYvbB-19" value="double" style="text;strokeColor=none;fillColor=none;align=left;verticalAlign=middle;spacingLeft=4;spacingRight=4;overflow=hidden;points=[[0,0.5],[1,0.5]];portConstraint=eastwest;rotatable=0;whiteSpace=wrap;html=1;" parent="8DD1BKv9RdwahtxrYvbB-18" vertex="1">
          <mxGeometry y="30" width="70" height="30" as="geometry" />
        </mxCell>
        <mxCell id="8DD1BKv9RdwahtxrYvbB-20" value="..." style="text;strokeColor=none;fillColor=none;align=left;verticalAlign=middle;spacingLeft=4;spacingRight=4;overflow=hidden;points=[[0,0.5],[1,0.5]];portConstraint=eastwest;rotatable=0;whiteSpace=wrap;html=1;" parent="8DD1BKv9RdwahtxrYvbB-18" vertex="1">
          <mxGeometry y="60" width="70" height="30" as="geometry" />
        </mxCell>
        <mxCell id="8DD1BKv9RdwahtxrYvbB-23" value="ext" style="swimlane;fontStyle=0;childLayout=stackLayout;horizontal=1;startSize=30;horizontalStack=0;resizeParent=1;resizeParentMax=0;resizeLast=0;collapsible=1;marginBottom=0;whiteSpace=wrap;html=1;rounded=1;" parent="XMHfkYjzhpahlJGWncad-9" vertex="1">
          <mxGeometry x="247" y="50" width="70" height="90" as="geometry" />
        </mxCell>
        <mxCell id="8DD1BKv9RdwahtxrYvbB-24" value="none" style="text;strokeColor=none;fillColor=none;align=left;verticalAlign=middle;spacingLeft=4;spacingRight=4;overflow=hidden;points=[[0,0.5],[1,0.5]];portConstraint=eastwest;rotatable=0;whiteSpace=wrap;html=1;" parent="8DD1BKv9RdwahtxrYvbB-23" vertex="1">
          <mxGeometry y="30" width="70" height="30" as="geometry" />
        </mxCell>
        <mxCell id="8DD1BKv9RdwahtxrYvbB-25" value="constant" style="text;strokeColor=none;fillColor=none;align=left;verticalAlign=middle;spacingLeft=4;spacingRight=4;overflow=hidden;points=[[0,0.5],[1,0.5]];portConstraint=eastwest;rotatable=0;whiteSpace=wrap;html=1;" parent="8DD1BKv9RdwahtxrYvbB-23" vertex="1">
          <mxGeometry y="60" width="70" height="30" as="geometry" />
        </mxCell>
        <mxCell id="XMHfkYjzhpahlJGWncad-3" value="curve_type" style="swimlane;fontStyle=0;childLayout=stackLayout;horizontal=1;startSize=30;horizontalStack=0;resizeParent=1;resizeParentMax=0;resizeLast=0;collapsible=1;marginBottom=0;whiteSpace=wrap;html=1;rounded=1;" parent="XMHfkYjzhpahlJGWncad-9" vertex="1">
          <mxGeometry x="355" y="50" width="70" height="150" as="geometry" />
        </mxCell>
        <mxCell id="XMHfkYjzhpahlJGWncad-4" value="uniform" style="text;strokeColor=none;fillColor=none;align=left;verticalAlign=middle;spacingLeft=4;spacingRight=4;overflow=hidden;points=[[0,0.5],[1,0.5]];portConstraint=eastwest;rotatable=0;whiteSpace=wrap;html=1;" parent="XMHfkYjzhpahlJGWncad-3" vertex="1">
          <mxGeometry y="30" width="70" height="30" as="geometry" />
        </mxCell>
        <mxCell id="XMHfkYjzhpahlJGWncad-5" value="non-uniform" style="text;strokeColor=none;fillColor=none;align=left;verticalAlign=middle;spacingLeft=4;spacingRight=4;overflow=hidden;points=[[0,0.5],[1,0.5]];portConstraint=eastwest;rotatable=0;whiteSpace=wrap;html=1;" parent="XMHfkYjzhpahlJGWncad-3" vertex="1">
          <mxGeometry y="60" width="70" height="30" as="geometry" />
        </mxCell>
        <mxCell id="XMHfkYjzhpahlJGWncad-6" value="nurbs" style="text;strokeColor=none;fillColor=none;align=left;verticalAlign=middle;spacingLeft=4;spacingRight=4;overflow=hidden;points=[[0,0.5],[1,0.5]];portConstraint=eastwest;rotatable=0;whiteSpace=wrap;html=1;" parent="XMHfkYjzhpahlJGWncad-3" vertex="1">
          <mxGeometry y="90" width="70" height="30" as="geometry" />
        </mxCell>
        <mxCell id="XMHfkYjzhpahlJGWncad-8" value="..." style="text;strokeColor=none;fillColor=none;align=left;verticalAlign=middle;spacingLeft=4;spacingRight=4;overflow=hidden;points=[[0,0.5],[1,0.5]];portConstraint=eastwest;rotatable=0;whiteSpace=wrap;html=1;" parent="XMHfkYjzhpahlJGWncad-3" vertex="1">
          <mxGeometry y="120" width="70" height="30" as="geometry" />
        </mxCell>
        <mxCell id="5KwWYdaOKzlkoL97L10Q-3" value="" style="edgeStyle=orthogonalEdgeStyle;rounded=0;orthogonalLoop=1;jettySize=auto;html=1;" edge="1" parent="1" source="5KwWYdaOKzlkoL97L10Q-1" target="5KwWYdaOKzlkoL97L10Q-2">
          <mxGeometry relative="1" as="geometry" />
        </mxCell>
        <mxCell id="5KwWYdaOKzlkoL97L10Q-16" value="" style="edgeStyle=orthogonalEdgeStyle;rounded=0;orthogonalLoop=1;jettySize=auto;html=1;" edge="1" parent="1" source="5KwWYdaOKzlkoL97L10Q-1" target="5KwWYdaOKzlkoL97L10Q-2">
          <mxGeometry relative="1" as="geometry" />
        </mxCell>
        <mxCell id="5KwWYdaOKzlkoL97L10Q-18" style="edgeStyle=orthogonalEdgeStyle;rounded=0;orthogonalLoop=1;jettySize=auto;html=1;entryX=0.5;entryY=0;entryDx=0;entryDy=0;" edge="1" parent="1" source="5KwWYdaOKzlkoL97L10Q-1" target="5KwWYdaOKzlkoL97L10Q-17">
          <mxGeometry relative="1" as="geometry" />
        </mxCell>
        <mxCell id="5KwWYdaOKzlkoL97L10Q-23" style="edgeStyle=orthogonalEdgeStyle;rounded=0;orthogonalLoop=1;jettySize=auto;html=1;" edge="1" parent="1" source="5KwWYdaOKzlkoL97L10Q-1" target="5KwWYdaOKzlkoL97L10Q-22">
          <mxGeometry relative="1" as="geometry" />
        </mxCell>
        <mxCell id="5KwWYdaOKzlkoL97L10Q-1" value="Knots" style="rounded=1;whiteSpace=wrap;html=1;" vertex="1" parent="1">
          <mxGeometry x="880" y="60" width="120" height="60" as="geometry" />
        </mxCell>
        <mxCell id="5KwWYdaOKzlkoL97L10Q-5" value="" style="edgeStyle=orthogonalEdgeStyle;rounded=0;orthogonalLoop=1;jettySize=auto;html=1;" edge="1" parent="1" source="5KwWYdaOKzlkoL97L10Q-2" target="5KwWYdaOKzlkoL97L10Q-4">
          <mxGeometry relative="1" as="geometry" />
        </mxCell>
        <mxCell id="5KwWYdaOKzlkoL97L10Q-13" style="edgeStyle=orthogonalEdgeStyle;rounded=0;orthogonalLoop=1;jettySize=auto;html=1;entryX=0.5;entryY=0;entryDx=0;entryDy=0;" edge="1" parent="1" source="5KwWYdaOKzlkoL97L10Q-2" target="5KwWYdaOKzlkoL97L10Q-11">
          <mxGeometry relative="1" as="geometry" />
        </mxCell>
        <mxCell id="5KwWYdaOKzlkoL97L10Q-2" value="index = find(x)" style="rounded=1;whiteSpace=wrap;html=1;" vertex="1" parent="1">
          <mxGeometry x="880" y="160" width="120" height="60" as="geometry" />
        </mxCell>
        <mxCell id="5KwWYdaOKzlkoL97L10Q-7" value="" style="edgeStyle=orthogonalEdgeStyle;rounded=0;orthogonalLoop=1;jettySize=auto;html=1;" edge="1" parent="1" source="5KwWYdaOKzlkoL97L10Q-4" target="5KwWYdaOKzlkoL97L10Q-6">
          <mxGeometry relative="1" as="geometry" />
        </mxCell>
        <mxCell id="5KwWYdaOKzlkoL97L10Q-4" value="if check_bounds(x)" style="rounded=1;whiteSpace=wrap;html=1;" vertex="1" parent="1">
          <mxGeometry x="820" y="260" width="120" height="60" as="geometry" />
        </mxCell>
        <mxCell id="5KwWYdaOKzlkoL97L10Q-6" value="index = ext(x)" style="whiteSpace=wrap;html=1;rounded=1;" vertex="1" parent="1">
          <mxGeometry x="820" y="354" width="120" height="60" as="geometry" />
        </mxCell>
        <mxCell id="5KwWYdaOKzlkoL97L10Q-10" value="" style="edgeStyle=orthogonalEdgeStyle;rounded=0;orthogonalLoop=1;jettySize=auto;html=1;" edge="1" parent="1" source="5KwWYdaOKzlkoL97L10Q-11" target="5KwWYdaOKzlkoL97L10Q-12">
          <mxGeometry relative="1" as="geometry" />
        </mxCell>
        <mxCell id="5KwWYdaOKzlkoL97L10Q-11" value="else" style="rounded=1;whiteSpace=wrap;html=1;" vertex="1" parent="1">
          <mxGeometry x="950" y="260" width="120" height="60" as="geometry" />
        </mxCell>
        <mxCell id="5KwWYdaOKzlkoL97L10Q-12" value="index = search(x)" style="whiteSpace=wrap;html=1;rounded=1;" vertex="1" parent="1">
          <mxGeometry x="950" y="354" width="120" height="60" as="geometry" />
        </mxCell>
        <mxCell id="5KwWYdaOKzlkoL97L10Q-17" value="x = at(index)" style="rounded=1;whiteSpace=wrap;html=1;" vertex="1" parent="1">
          <mxGeometry x="1020" y="160" width="120" height="60" as="geometry" />
        </mxCell>
        <mxCell id="5KwWYdaOKzlkoL97L10Q-25" value="" style="edgeStyle=orthogonalEdgeStyle;rounded=0;orthogonalLoop=1;jettySize=auto;html=1;" edge="1" parent="1" source="5KwWYdaOKzlkoL97L10Q-22" target="5KwWYdaOKzlkoL97L10Q-24">
          <mxGeometry relative="1" as="geometry" />
        </mxCell>
        <mxCell id="5KwWYdaOKzlkoL97L10Q-22" value="Knots()" style="rounded=1;whiteSpace=wrap;html=1;" vertex="1" parent="1">
          <mxGeometry x="1169" y="160" width="120" height="60" as="geometry" />
        </mxCell>
        <mxCell id="5KwWYdaOKzlkoL97L10Q-24" value="pad()" style="rounded=1;whiteSpace=wrap;html=1;" vertex="1" parent="1">
          <mxGeometry x="1169" y="250" width="120" height="60" as="geometry" />
        </mxCell>
      </root>
    </mxGraphModel>
  </diagram>
</mxfile>
